<svg xmlns="http://www.w3.org/2000/svg" width="63" height="64" viewBox="0 0 63 64">
    <g fill="none" fill-rule="evenodd">
        <path d="M23.422 52.202a18.528 18.528 0 0 1-1.022-.135l-.308 9.755-.039.983h1.754l-.038-.983-.347-9.62zM53.725 60.877c-5.648 2.622-12.568 1.639-17.253-3.007-.231-.231-.443-.463-.655-.694-2.39-2.699-5.648-4.395-9.195-4.762l.192 9.408c.83.327 1.1.732 1.196.983h27.7a2.562 2.562 0 0 1-.5-.405l-1.485-1.523z"/>
        <path fill="#F1F1F1" fill-rule="nonzero" d="M37.995 6.863c7.383 7.768 7.788 19.624 1.388 27.817l1.735 1.85 5.494 5.764.366-.366a.522.522 0 0 1 .79.038l.059.077a.55.55 0 0 1 .019.656l12.106 12.838c3.547-5.262 3.489-12.376-.309-17.542a16.468 16.468 0 0 0-2.544-2.737c-2.95-2.468-4.55-6.169-4.704-10.024a26.049 26.049 0 0 0-7.73-17.62C38.766 1.754 30.766-.694 23.094.231c5.475.155 10.853 2.371 14.901 6.632zM27.335 48.501h-.81l.077 3.913c3.547.347 6.805 2.063 9.196 4.762.212.231.424.463.655.694 4.684 4.646 11.605 5.629 17.253 3.007l-11.875-12.28.039-.038a.519.519 0 0 1-.52-.116c-.213-.212-.232-.559-.02-.77l.29-.29-7.48-7.865a21.537 21.537 0 0 1-6.092 2.718l.56 6.284h-1.273v-.019zM23.422 52.202l-.135-3.7h-.771l-.116 3.565c.347.058.694.097 1.022.135zM18.988 48.501h-1.465l.54-6.034c-4.068-.867-7.904-2.93-10.988-6.168C2.217 31.19.385 24.289 1.523 17.83c-2.969 8.945-1.003 19.2 5.783 26.371a26.13 26.13 0 0 0 11.701 7.133l-.019-2.834z"/>
        <path fill="#CED1D2" fill-rule="nonzero" d="M4.588 62.805H2.622a.58.58 0 0 0-.579.578c0 .309.27.578.579.578h1.966a.58.58 0 0 0 .578-.578.58.58 0 0 0-.578-.578zM11.258 63.383a.58.58 0 0 0-.578-.578H6.496a.58.58 0 0 0-.578.578c0 .309.27.578.578.578h4.184c.308.02.578-.25.578-.578zM61.937 62.805h-3.2c-1.08.482-2.217.482-3.045 0h-27.72c.057.154.038.25.038.25h-4.203l-.019-.25h-1.754v.25H17.83s-.019-.096.039-.25h-5.205a.58.58 0 0 0-.578.578c0 .309.27.578.578.578h49.272a.58.58 0 0 0 .579-.578.58.58 0 0 0-.579-.578zM23.094 42.93h-.405l-.173 5.571h.77l-.192-5.57z"/>
        <path fill="#212237" fill-rule="nonzero" d="M22.092 61.822l.308-9.755.116-3.566.173-5.57c-.424 0-.848 0-1.291-.02v5.59h-2.43l.02 2.834.077 10.487h3.027z"/>
        <path fill="#3E495D" fill-rule="nonzero" d="M17.85 63.036h4.203v-.25l.039-.984h-3.027c-.829.328-1.099.733-1.195.984-.039.154-.02.25-.02.25z"/>
        <path fill="#212237" fill-rule="nonzero" d="M23.422 52.202l.327 9.62h3.027l-.193-9.408-.077-3.913h-2.583l.077-5.61c-.308.02-.598.04-.906.04l.193 5.57.135 3.701z"/>
        <path fill="#3E495D" fill-rule="nonzero" d="M26.795 61.822H23.77l.038.983.02.25h4.202s.02-.096-.039-.25c-.096-.25-.366-.656-1.195-.983z"/>
        <path fill="#FFF" fill-rule="nonzero" d="M18.043 42.448l-.54 6.034H21.399v-5.59a20.002 20.002 0 0 1-3.355-.444zM26.525 48.501H28.627l-.56-6.284c-1.33.366-2.698.578-4.067.675l-.077 5.61h2.602z"/>
        <path fill="#F1F1F1" fill-rule="nonzero" d="M41.639 47.364l4.992-5.05-5.494-5.765 3.47 3.72-9.658.02-.694-.829c-.038.02-.057.039-.096.058l7.48 7.846z"/>
        <path fill="#4C4C4C" fill-rule="nonzero" d="M41.639 47.364l4.992-5.05-5.494-5.765 3.47 3.72-9.658.02-.694-.829c-.038.02-.057.039-.096.058l7.48 7.846z" opacity=".28"/>
        <path fill="#002D74" fill-rule="nonzero" d="M47.807 42.776l-5.687 5.648a.667.667 0 0 1-.23.135l-.04.039 11.875 12.28L55.19 62.4c.155.154.328.29.502.405.828.482 1.966.482 3.045 0a5.517 5.517 0 0 0 1.485-.983l.058-.058c1.619-1.542 2.004-3.778.848-4.993l-1.157-1.214-12.106-12.839c-.02 0-.038.02-.058.058z"/>
        <path fill="#F1F1F1" fill-rule="nonzero" d="M39.402 34.68l-.019.019 1.754 1.831-1.735-1.85z"/>
        <path fill="#9E9E9E" fill-rule="nonzero" d="M39.402 34.68l-.019.019 1.754 1.831-1.735-1.85z" opacity=".57"/>
        <path fill="#F1F1F1" fill-rule="nonzero" d="M44.588 40.25l-3.47-3.72-1.754-1.831c-.636.829-1.35 1.6-2.12 2.352a20.715 20.715 0 0 1-3.008 2.39l.694.829 9.658-.02z"/>
        <path fill="#4C4C4C" fill-rule="nonzero" d="M44.588 40.25l-3.47-3.72-1.754-1.831c-.636.829-1.35 1.6-2.12 2.352a20.715 20.715 0 0 1-3.008 2.39l.694.829 9.658-.02z" opacity=".28"/>
        <path fill="#9E9E9E" fill-rule="nonzero" d="M44.588 40.25l-3.47-3.72-1.754-1.831c-.636.829-1.35 1.6-2.12 2.352a20.715 20.715 0 0 1-3.008 2.39l.694.829 9.658-.02z" opacity=".57"/>
        <path fill="#A8003A" fill-rule="nonzero" d="M7.055 36.299a21.373 21.373 0 0 0 10.988 6.168c1.118.232 2.237.386 3.374.444.424.02.848.038 1.291.02h.405c.309 0 .598-.02.906-.04a22.398 22.398 0 0 0 4.068-.674 20.728 20.728 0 0 0 6.091-2.718c.039-.02.077-.039.097-.058a20.715 20.715 0 0 0 3.007-2.39 20.317 20.317 0 0 0 2.12-2.352l.02-.02c6.38-8.212 5.995-20.067-1.388-27.816C33.986 2.603 28.607.386 23.152.23 17.658.077 12.125 2.024 7.846 6.111a21.277 21.277 0 0 0-6.304 11.72C.366 24.29 2.198 31.191 7.055 36.3zm32.579-22.69c1.831 4.03 2.255 8.521 1.156 12.82-1.33 5.09-4.723 9.523-9.368 12.029-3.836 2.082-8.328 2.834-12.627 2.024-4.337-.81-8.385-3.104-11.2-6.496-2.756-3.316-4.395-7.48-4.51-11.798A19.287 19.287 0 0 1 7.21 9.773C9.87 6.42 13.667 3.971 17.83 3.007c4.338-1.002 8.983-.501 12.974 1.504 3.855 1.928 7.036 5.166 8.829 9.099z"/>
        <path fill="#A8003A" fill-rule="nonzero" d="M9.214 34.236c-6.11-6.42-6.65-16.077-1.812-23.094-2.197 3.123-3.412 6.92-3.335 10.757.078 4.299 1.678 8.559 4.55 11.778a19.322 19.322 0 0 0 4.087 3.431 18.67 18.67 0 0 1-3.49-2.872c.02.02.02 0 0 0zM13.205 37.398c-.077-.039-.154-.097-.232-.135.078.038.155.096.232.135zM7.46 11.046c.058-.097.135-.193.212-.27-.077.096-.135.193-.212.27z"/>
        <path fill="#B3D1E2" fill-rule="nonzero" d="M39.769 16.752c-1.176-4.125-3.798-7.827-7.383-10.217-3.72-2.468-8.309-3.547-12.743-2.892A18.273 18.273 0 0 0 8.578 9.658c-.308.366-.617.732-.906 1.118-.077.096-.135.193-.212.27-.019.038-.038.058-.058.096-4.838 7.017-4.28 16.675 1.812 23.094 1.832-9.928 6.67-12.916 8.926-13.783l1.214-.578c.309-.29.675-.54 1.08-.752v-.771a2.803 2.803 0 0 1-.733-1.446c-.694-.867-1.08-2.14-1.08-3.759 0-.771 0-1.542.059-2.275a1.082 1.082 0 0 1-.386-.231c-.308-.308-.366-1.35 0-2.448.52-1.542 1.831-3.2 4.357-3.277h.154c.347 0 .694.019 1.002.077 2.43.327 3.682 1.908 3.99 3.682a5.932 5.932 0 0 1-.154 2.66s-.077.231-.231.385c.482 0 1.08.193 1.08 1.196 0 1.272-.945 1.657-1.427 1.773a4.639 4.639 0 0 1-1.561 2.468v1.85c.347.193.655.424.906.694l1.523.945v.02c2.313 1.04 6.438 4.067 8.27 12.587a18.497 18.497 0 0 0 3.624-7.055c.81-3.104.81-6.381-.058-9.446zm-1.774 5.956c-.675.637-1.754.617-2.39-.057-.636-.675-.617-1.755.058-2.39.674-.637 1.754-.618 2.39.057.636.675.617 1.754-.058 2.39z"/>
        <g fill="#FFF" fill-rule="nonzero" opacity=".31">
            <path d="M7.98 15.017a15.41 15.41 0 0 0-.558 1.831c-.386 1.6 2.082 2.333 2.467.713 1.06-4.395 4.299-7.903 8.424-9.33.52-1.542 1.832-3.2 4.357-3.277-6.477-.115-12.337 4.048-14.69 10.063zM37.455 16.347c-1.773-6.246-7.21-10.737-13.61-11.335 2.43.328 3.683 1.908 3.991 3.682 3.374 1.561 6.053 4.53 7.113 8.25.463 1.581 2.97.984 2.506-.597z"/>
        </g>
        <path fill="#B3D1E2" fill-rule="nonzero" d="M35.663 20.26c-.675.636-.694 1.716-.058 2.39.636.675 1.715.695 2.39.058.675-.636.694-1.715.058-2.39-.655-.675-1.716-.713-2.39-.058z"/>
        <path fill="#FFF" fill-rule="nonzero" d="M35.663 20.26c-.675.636-.694 1.716-.058 2.39.636.675 1.715.695 2.39.058.675-.636.694-1.715.058-2.39-.655-.675-1.716-.713-2.39-.058z" opacity=".31"/>
        <path fill="#2F5BA9" fill-rule="nonzero" d="M41.35 47.653a.53.53 0 0 0 .019.771.528.528 0 0 0 .52.116.485.485 0 0 0 .231-.135l5.687-5.648a.266.266 0 0 0 .058-.077.55.55 0 0 0-.02-.656l-.057-.077a.523.523 0 0 0-.79-.039l-.367.367-4.992 5.05-.29.328z"/>
        <path fill="#E0004D" fill-rule="nonzero" d="M17.85 2.988C13.668 3.952 9.87 6.4 7.23 9.754c-2.776 3.509-4.222 7.962-4.125 12.415.115 4.318 1.754 8.5 4.51 11.797 2.834 3.393 6.863 5.687 11.2 6.497 4.3.79 8.79.038 12.627-2.024 4.646-2.506 8.039-6.94 9.369-12.03a19.45 19.45 0 0 0-1.157-12.819c-1.793-3.932-4.973-7.17-8.81-9.098a19.548 19.548 0 0 0-12.992-1.504zM35.2 34.892a18.31 18.31 0 0 1-8.52 4.588c-.29.057-.56.115-.849.173a18.188 18.188 0 0 1-5.783.116c-.27-.039-.54-.077-.81-.135a18.33 18.33 0 0 1-6.033-2.256c-.077-.038-.154-.096-.232-.135-.077-.057-.173-.096-.25-.154a18.854 18.854 0 0 1-4.087-3.431c-2.872-3.22-4.472-7.46-4.55-11.778-.057-3.837 1.138-7.634 3.336-10.757.019-.039.038-.058.058-.096.057-.097.134-.193.212-.27.289-.386.578-.771.906-1.118a18.327 18.327 0 0 1 11.065-6.015c4.433-.655 9.002.424 12.742 2.892 3.585 2.39 6.207 6.091 7.383 10.217.867 3.065.867 6.342.096 9.426a18.23 18.23 0 0 1-3.624 7.055c.039.155.058.309.097.463-.386.424-.752.829-1.157 1.215z"/>
        <path fill="#00C8AB" fill-rule="nonzero" d="M24.424 23.075c-.135.096-.29.173-.424.231-.077.039-.154.058-.231.077a2.1 2.1 0 0 1-.502.097c-.077 0-.173.019-.27.019-.077 0-.154 0-.25-.02-.02 0-.058 0-.077-.019-.058 0-.097-.019-.154-.019-.039 0-.058-.02-.097-.02-.038-.019-.096-.019-.135-.038-.038 0-.057-.02-.096-.02-.039-.018-.077-.038-.135-.038-.039-.019-.058-.019-.096-.038l-.116-.058c-.077-.039-.135-.077-.212-.116-.02-.019-.039-.019-.058-.038-.038-.02-.077-.058-.116-.077-.019-.02-.038-.02-.057-.039-.039-.039-.078-.058-.116-.096-.02-.02-.039-.02-.039-.039l-.115-.116c0-.019-.02-.019-.02-.038a2.712 2.712 0 0 1-.578-1.06l-.058-.29-.154 6.15c.983 2.082 2.275 3.952 2.66 4.434.367-.482 1.658-2.352 2.641-4.473l-.096-6.245a2.62 2.62 0 0 1-.424 1.214c-.174.25-.405.501-.675.675z"/>
        <path fill="#00C8AB" fill-rule="nonzero" d="M25.639 27.836c-.155.328-.309.617-.463.906-.868 1.62-1.831 2.988-2.101 3.316v.328h2.062v2.602h-4.356v-2.602h2.12v-.328c-.289-.347-1.542-2.12-2.583-4.222l-.29 11.933c1.91.27 3.876.212 5.784-.116l-.173-11.817z"/>
        <path fill="#FFF" fill-rule="nonzero" d="M27.971 20.646l-.173 2.37c.115.714.173 1.427.25 2.121.077.906.154 1.793.347 2.487.039 0 .077-.02.097-.02a.905.905 0 1 1 0 1.813.905.905 0 0 1-.906-.906.94.94 0 0 1 .366-.733c-.174-.655-.27-1.445-.347-2.274L26.64 39.48a18.218 18.218 0 0 0 8.52-4.588c.405-.386.772-.79 1.138-1.196-.039-.154-.058-.308-.097-.462-1.792-8.52-5.918-11.547-8.23-12.588z"/>
        <path fill="#212237" fill-rule="nonzero" d="M22.998 31.884c-.367-.482-1.678-2.332-2.66-4.433v.385c1.021 2.082 2.293 3.875 2.582 4.222v.694h.174v-.694c.27-.328 1.214-1.697 2.101-3.316.154-.289.309-.578.463-.906v-.405c-1.003 2.082-2.294 3.971-2.66 4.453z"/>
        <path fill="#FFF" fill-rule="nonzero" d="M22.901 32.733v-.347h-2.12v2.602h4.356v-2.602h-2.062v.366H22.9v-.02zm-.636 1.734h-.983v-.154h.983v.154zm0-.404h-.983v-.983h.983v.983zm2.545.404h-2.044v-.154h2.044v.154zm0-.404h-2.044v-.155h2.044v.155zm0-.424h-2.044v-.155h2.044v.155zm0-.579v.154h-2.044v-.154h2.044z"/>
        <path fill="#FFE0D8" fill-rule="nonzero" d="M21.263 33.06h1v1h-1z"/>
        <path fill="#FFF4F2" fill-rule="nonzero" d="M22.766 33.06h2.043v1h-2.043z"/>
        <path fill="#FFF4F2" fill-rule="nonzero" d="M22.766 33.484h2.043v1h-2.043z"/>
        <path fill="#FFF4F2" fill-rule="nonzero" d="M22.766 33.889h2.043v1h-2.043z"/>
        <path fill="#FFF4F2" fill-rule="nonzero" d="M22.766 34.313h2.043v1h-2.043z"/>
        <path fill="#FFE0D8" fill-rule="nonzero" d="M21.263 34.313h1v1h-1z"/>
        <path fill="#FFF" fill-rule="nonzero" d="M18.795 31.73a.326.326 0 0 1-.193.058.337.337 0 0 1-.27-.135 1.28 1.28 0 0 1-.751-.29 1.63 1.63 0 0 1-.444-.558 2.205 2.205 0 0 1-.655.501 1.284 1.284 0 0 1-.771.096.326.326 0 0 1-.193.058.366.366 0 1 1 0-.732c.154 0 .29.096.328.231.115.02.27 0 .462-.077.174-.077.386-.231.617-.54-.327-.964-.405-2.448-.212-4.414.02-.212.232-1.986.926-2.487a.977.977 0 0 1 .289-.135c0-.328.058-.945.289-1.639l-.077-1.214c-2.256.867-7.094 3.855-8.926 13.783a18.09 18.09 0 0 0 3.49 2.853c.077.058.173.097.25.154.077.039.154.097.232.135a18.33 18.33 0 0 0 6.033 2.256l-.424-7.904z"/>
        <path fill="#FFF" fill-rule="nonzero" d="M18.101 23.75h-.058c-.057 0-.096.019-.154.057-.405.29-.675 1.485-.732 2.16-.193 1.888-.097 3.103.096 3.855.366-.694.771-1.812 1.099-3.624.038-.174.077-.405.115-.656l-.096-1.58c-.077-.116-.154-.193-.27-.213zM17.85 30.998a.71.71 0 0 0 .483.192.368.368 0 0 1 .27-.135c.057 0 .096.02.154.039l-.212-3.701c-.309 1.31-.675 2.313-1.118 2.988.134.327.289.5.424.617z"/>
        <path fill="#F1F1F1" fill-rule="nonzero" d="M20.318 27.836v-.385l.154-6.15c-.019-.115-.019-.231-.019-.347v-1.31a3.619 3.619 0 0 0-.964.751c-1.022 1.099-1.118 2.525-1.118 2.969.906.463.443 2.66.386 2.91-.077.406-.155.772-.232 1.119l.212 3.701a.367.367 0 0 1 .212.328c0 .135-.077.25-.173.308l.443 7.904c.27.058.54.096.81.135l.29-11.933zM19.161 20.087c.058-.077.135-.135.193-.193l-1.214.578.077 1.215c.193-.54.482-1.099.944-1.6z"/>
        <path fill="#F1F1F1" fill-rule="nonzero" d="M18.448 25.542c.077-.578.077-1.234-.096-1.58l.096 1.58zM26.448 19.701c.79.848 1.157 2.063 1.369 3.316l.173-2.371v-.02l-1.542-.925zM27.643 25.504c-.019-.116-.019-.232-.038-.347-.193-2.179-.424-4.588-2.063-5.63v1.427c0 .077 0 .135-.02.212l.097 6.246v.405l.174 11.817c.289-.058.578-.116.848-.174l1.002-13.956z"/>
        <path fill="#002D74" fill-rule="nonzero" d="M20.453 19.142a3.874 3.874 0 0 0-1.08.752c-.077.058-.134.135-.192.193a4.713 4.713 0 0 0-.945 1.58 5.471 5.471 0 0 0-.289 1.639.572.572 0 0 0-.29.135c-.693.501-.905 2.275-.924 2.487-.193 1.966-.135 3.45.212 4.414a1.774 1.774 0 0 1-.617.54.862.862 0 0 1-.463.077c.02.039.02.077.02.135 0 .135-.078.25-.174.308.193.039.462.058.77-.096.232-.096.444-.27.656-.501.135.231.27.424.444.559.27.231.559.289.752.289-.058-.058-.078-.135-.078-.231 0-.097.039-.174.078-.232-.116 0-.29-.038-.482-.192-.135-.116-.29-.29-.424-.617.443-.675.81-1.677 1.118-2.988.077-.347.154-.733.23-1.118.059-.27.521-2.448-.385-2.911 0-.444.077-1.87 1.118-2.969.27-.289.598-.54.964-.752v-.5h-.019zm-2.005 6.4c-.038.25-.077.482-.115.656-.328 1.792-.714 2.93-1.1 3.624-.192-.771-.27-1.967-.096-3.856.077-.694.347-1.87.733-2.159.058-.038.096-.058.154-.058h.058c.096.02.193.097.25.212.193.328.174 1.003.116 1.581zM26.448 19.701a3.644 3.644 0 0 0-.906-.694v.54c1.639 1.06 1.87 3.45 2.063 5.629.02.116.02.231.038.347.077.829.155 1.62.347 2.275a.674.674 0 0 1 .424-.155c-.173-.694-.27-1.561-.347-2.486a28.728 28.728 0 0 0-.25-2.12c-.212-1.292-.578-2.507-1.369-3.336z"/>
        <path fill="#1B2C1F" fill-rule="nonzero" d="M15.865 31.075c0-.039 0-.077-.02-.135-.057-.135-.173-.232-.327-.232a.366.366 0 1 0 0 .733c.077 0 .135-.02.193-.058.077-.077.154-.193.154-.308zM27.971 27.778c-.231.155-.366.424-.366.733a.905.905 0 1 0 1.812 0 .905.905 0 0 0-.906-.906c-.039 0-.077 0-.097.02a.728.728 0 0 0-.443.153zm.54.25a.47.47 0 0 1 .462.464.47.47 0 0 1-.462.462.47.47 0 0 1-.463-.462c0-.251.193-.463.463-.463z"/>
        <path fill="#E9E8E6" fill-rule="nonzero" d="M28.029 28.492c0 .25.212.462.463.462a.47.47 0 0 0 .462-.462.47.47 0 0 0-.462-.463.47.47 0 0 0-.463.463z"/>
        <path fill="#1B2C1F" fill-rule="nonzero" d="M18.333 31.21c-.058.057-.078.135-.078.231 0 .077.039.154.078.231a.368.368 0 0 0 .27.135c.077 0 .134-.019.192-.058a.365.365 0 0 0 .174-.308.356.356 0 0 0-.212-.328.363.363 0 0 0-.155-.038c-.115 0-.212.038-.27.135z"/>
        <path fill="#ED785F" fill-rule="nonzero" d="M21.263 22.824l-.116-.116.116.116zM21.108 22.67a2.712 2.712 0 0 1-.578-1.06c.116.404.309.77.578 1.06zM21.59 23.094c-.038-.02-.077-.058-.115-.077.038.02.077.038.115.077zM21.417 22.959c-.039-.039-.077-.058-.116-.096.039.038.077.057.116.096zM21.648 23.133c.077.038.135.077.212.115-.077-.038-.135-.077-.212-.115zM22.072 23.345c-.038-.02-.058-.02-.096-.039.038 0 .058.02.096.039zM22.747 23.499c-.02 0-.058 0-.077-.02.038.02.058.02.077.02zM22.516 23.46c-.039 0-.058-.019-.097-.019.039.02.077.02.097.02zM22.284 23.402c-.038 0-.057-.019-.096-.019.039 0 .077.02.096.02zM25.542 19.007v-1.85c-.096.077-.193.154-.27.212a2.907 2.907 0 0 1-2.68 1.908h-.076c-.81 0-1.543-.366-2.063-.906v2.583c0 .116.02.232.02.347l.057.29c1.909-.964 3.624-2.198 5.012-3.895v3.239c0 .52-.154 1.022-.443 1.426a2.62 2.62 0 0 0 .424-1.214c0-.077.02-.135.02-.212v-1.927z"/>
        <path fill="#FFBA98" fill-rule="nonzero" d="M20.53 21.61c.097.404.309.77.578 1.06 0 .02.02.02.02.038l.115.116c.02.02.039.02.039.039a.511.511 0 0 0 .116.096c.019.02.038.02.057.039a.403.403 0 0 0 .116.077c.02.019.039.019.058.038.077.039.135.077.212.116l.116.058c.038.019.057.019.096.038.039.02.077.039.135.039.039.02.058.02.096.02.039.018.097.018.135.038.039 0 .058.019.097.019.057.02.096.02.154.02.02 0 .058 0 .077.019.077 0 .154.019.25.019.097 0 .174 0 .27-.02.174-.019.328-.057.502-.096.077-.02.154-.058.231-.077.154-.058.29-.135.424-.231a2.64 2.64 0 0 0 .694-.694c.27-.405.443-.887.443-1.427v-3.238c-1.388 1.696-3.122 2.93-5.03 3.894zM22.034 16.039h1.041s.829.038.829-.482c0-.347-.405-.405-1.35-.405-.944 0-1.35.077-1.35.405 0 .52.83.482.83.482z"/>
        <path fill="#FFBA98" fill-rule="nonzero" d="M21.09 14.94h2.929c.79 0 1.427.636 1.427 1.426 0 .347-.058.694-.174 1.003.097-.077.193-.135.27-.212.713-.598 1.272-1.427 1.562-2.468.462-.116 1.426-.52 1.426-1.773 0-1.003-.597-1.196-1.08-1.196-.134.135-.327.213-.597.097-.598-.27-.52-3.509-3.875-3.72-1.118 2.525-3.219 3.16-4.26 2.795-.058.732-.058 1.522-.058 2.274 0 1.62.386 2.892 1.08 3.76a2.617 2.617 0 0 1-.058-.56 1.395 1.395 0 0 1 1.407-1.426z"/>
        <path fill="#041939" fill-rule="nonzero" d="M22.959 8.096c3.354.212 3.277 3.451 3.875 3.72.27.117.462.04.597-.096.155-.154.232-.385.232-.385.25-.848.327-1.774.154-2.66-.328-1.774-1.562-3.335-3.99-3.682a8.14 8.14 0 0 0-1.003-.077h-.154c-2.525.057-3.856 1.735-4.357 3.277-.366 1.099-.327 2.12 0 2.448.097.096.232.173.386.231 1.04.405 3.161-.231 4.26-2.776zM22.516 19.277h.077a2.907 2.907 0 0 0 2.68-1.908c.115-.309.173-.656.173-1.003 0-.79-.636-1.426-1.427-1.426H21.09c-.79 0-1.426.636-1.426 1.426 0 .193.019.386.057.56a3.04 3.04 0 0 0 .733 1.445 2.81 2.81 0 0 0 2.063.906zm.038-4.144c.945 0 1.35.077 1.35.404 0 .52-.83.482-.83.482h-1.04s-.83.039-.83-.482c0-.327.406-.385 1.35-.404z"/>
    </g>
</svg>
