<svg xmlns="http://www.w3.org/2000/svg" width="69" height="64" viewBox="0 0 69 64">
    <g fill="none" fill-rule="nonzero">
        <path fill="#CED1D2" d="M50.434 62.92c-.274-.039-.55-.078-.824-.137-.04 0-.079-.02-.118-.02H5.144a.59.59 0 0 0-.59.59c0 .313.275.588.59.588H65.55a.59.59 0 0 0 .589-.589.604.604 0 0 0-.59-.589h-9.913c-.197.04-.412.079-.609.118a15.66 15.66 0 0 1-4.594.04z"/>
        <path fill="#F1F1F1" d="M9.953 52.888c-.216-.176-.432-.353-.647-.55.215.197.431.374.647.55zM11.524 54.047c-.236-.157-.471-.334-.707-.51.236.176.452.353.707.51zM30.174 10.307v8.186h1.924V16.08h4.496a18.11 18.11 0 0 1 6.027-5.281 28.884 28.884 0 0 0-2.356-1.571 26.363 26.363 0 0 0-11.78-3.652v4.732h1.69zM30.174 57.09v1.472a22.342 22.342 0 0 0 1.944-.334V57.09h-1.944zM5.89 48.785c-.157-.216-.315-.412-.472-.628.157.216.315.412.472.628zM8.5 51.632c-.196-.196-.412-.393-.608-.59.216.197.412.394.609.59zM6.479 49.492l-.53-.648.53.648zM7.774 50.906c-.196-.197-.373-.393-.55-.59.177.197.354.393.55.59zM12.427 54.655c-.255-.157-.49-.314-.746-.49.236.176.49.333.746.49zM44.172 57.09v3.533c.137.098.294.177.451.275a16.5 16.5 0 0 0 3.75 1.61v-5.399h-4.201v-.02zM6.596 49.65c.177.215.373.431.57.627-.197-.216-.373-.432-.57-.628zM38.753 57.09v1.08c1.473.333 2.886.902 4.202 1.668V57.09h-4.202zM4.908 16.825a26.21 26.21 0 0 0-1.983 3.298C-1.728 29.252-.51 40.108 5.301 48a9.523 9.523 0 0 1-.393-.55V16.825zM60.368 41.934v15.175h-5.34v5.772c.197-.04.412-.059.609-.118 4.711-.942 8.952-4.044 11.17-8.873 2.395-5.262 1.59-11.446-1.845-15.942a18.22 18.22 0 0 1-4.594 3.986zM10.425 53.261c-.118-.078-.216-.176-.334-.255.196.157.412.314.628.471-.02-.02-.059-.039-.079-.059-.078-.058-.137-.117-.215-.157zM8.618 51.73c.177.177.373.334.57.51-.06-.039-.098-.098-.157-.137-.138-.137-.275-.255-.413-.373zM33.335 57.09v.903a14.37 14.37 0 0 1 4.201-.06v-.843h-4.201zM53.811 57.09H49.61v5.693c.275.059.55.098.824.137h3.377v-5.83z"/>
        <path fill="#393939" d="M32.079 16.079v2.414h3.023c.432-.844.923-1.649 1.472-2.414H32.08z" opacity=".35"/>
        <path fill="#FFF" d="M33.276 24.717h-.393v3.082h.334c-.02-.393-.04-.805-.04-1.198 0-.648.02-1.276.1-1.884zM33.472 23.342h-.608zM30.174 23.342h1.472v1h-1.472zM30.174 24.717h1.472v3.082h-1.472zM30.174 30.115h1.472v3.082h-1.472zM30.174 28.741h1.472v1h-1.472zM33.296 28.741h-.432zM32.864 30.115v3.083h1.57a16.376 16.376 0 0 1-.903-3.083h-.667zM30.174 35.514h1.472v3.082h-1.472zM30.174 34.14h1.472v1h-1.472zM34.847 34.14h-1.983zM32.864 35.514v3.082h4.927a18.162 18.162 0 0 1-2.238-3.082h-2.69zM30.174 40.913h1.472v3.082h-1.472zM32.864 40.913h6.479v3.082h-6.479zM30.174 39.539h1.472v1h-1.472zM38.714 39.539h-5.85zM30.174 46.312h1.472v3.082h-1.472zM32.864 46.312h6.479v3.082h-6.479zM30.174 44.937h1.472v1h-1.472zM32.864 44.937h6.479v1h-6.479zM33.472 23.342h-.589v1.375h.393c.04-.472.118-.923.196-1.375z"/>
        <path fill="#FFF" d="M33.472 23.342h-.589v1.375h.393c.04-.472.118-.923.196-1.375z" opacity=".5"/>
        <path fill="#FFF" d="M30.174 23.342h1.472v1.374h-1.472z"/>
        <path fill="#FFF" d="M30.174 23.342h1.472v1.374h-1.472z" opacity=".5"/>
        <path fill="#FFF" d="M30.174 28.741h1.472v1.374h-1.472z"/>
        <path fill="#FFF" d="M30.174 28.741h1.472v1.374h-1.472z" opacity=".5"/>
        <path fill="#FFF" d="M33.296 28.741h-.432v1.374h.648a33.264 33.264 0 0 1-.216-1.374z"/>
        <path fill="#FFF" d="M33.296 28.741h-.432v1.374h.648a33.264 33.264 0 0 1-.216-1.374z" opacity=".5"/>
        <path fill="#FFF" d="M30.174 34.14h1.472v1.374h-1.472z"/>
        <path fill="#FFF" d="M30.174 34.14h1.472v1.374h-1.472z" opacity=".5"/>
        <path fill="#FFF" d="M34.847 34.14h-1.964v1.374h2.69c-.275-.451-.51-.903-.726-1.374z"/>
        <path fill="#FFF" d="M34.847 34.14h-1.964v1.374h2.69c-.275-.451-.51-.903-.726-1.374z" opacity=".5"/>
        <path fill="#FFF" d="M38.714 39.539h-5.85v1.374h6.478v-.785c-.216-.197-.412-.393-.628-.59z"/>
        <path fill="#FFF" d="M38.714 39.539h-5.85v1.374h6.478v-.785c-.216-.197-.412-.393-.628-.59z" opacity=".5"/>
        <path fill="#FFF" d="M30.174 39.539h1.472v1.374h-1.472z"/>
        <path fill="#FFF" d="M30.174 39.539h1.472v1.374h-1.472z" opacity=".5"/>
        <path fill="#4C4C4C" d="M51.102 44.525a17.76 17.76 0 0 1-10.778-3.612c-.334-.255-.668-.51-.982-.785v3.867h-6.478V39.54h5.85a13.979 13.979 0 0 1-.923-.943h-4.927V34.14h1.963l-.412-.942h-1.57V28.74h.431c-.04-.314-.059-.628-.078-.942h-.334v-4.457h.589a17.52 17.52 0 0 1 1.63-4.83h-4.948v4.83h1.472V27.8h-1.472v.942h1.472V33.198h-1.472v.942h1.472V38.596h-1.472v.943h1.472V43.995h-1.472v.942h1.472v4.457h-1.472v7.715h1.944v1.139c.137-.02.274-.059.412-.079.275-.059.55-.117.824-.157v-.903h4.202v.844c.412.06.824.138 1.217.216v-1.08h4.201v2.749c.294.177.57.334.844.53.118.079.255.177.373.255V57.09h4.201v5.398c.373.099.727.197 1.1.275.039 0 .078.02.118.02V57.09h4.2v5.83h-3.376c1.531.216 3.082.197 4.594-.059V57.09h5.34V41.914a17.504 17.504 0 0 1-9.227 2.611zm-11.74 4.869h-6.479v-4.457h6.479v4.457z" opacity=".35"/>
        <path fill="#FFF" d="M30.174 44.937h1.472v1.374h-1.472z"/>
        <path fill="#FFF" d="M30.174 44.937h1.472v1.374h-1.472z" opacity=".5"/>
        <path fill="#FFF" d="M32.864 44.937h6.479v1.374h-6.479z"/>
        <path fill="#FFF" d="M32.864 44.937h6.479v1.374h-6.479z" opacity=".5"/>
        <path fill="#A8003A" d="M9.03 11.445H12.094V2.65H22.93v8.795h1.944l.942-.962.236-.157v-.02h2.414V3.868h-1.315V1.67H7.91v2.198H6.597v6.44h2.435z"/>
        <path fill="#FFF" d="M10.425 14.606h6.714v3.926h-6.714zM17.924 14.606v3.79l3.77-3.79zM13.664 22.636h-3.24v3.239zM17.924 13.29v1.316h3.77l1.315-1.315z"/>
        <path fill="#75949E" d="M17.924 13.29v1.316h3.77l1.315-1.315z" opacity=".5"/>
        <path fill="#FFF" d="M10.425 13.291h6.714v1.315h-6.714z"/>
        <path fill="#75949E" d="M10.425 13.291h6.714v1.315h-6.714z" opacity=".5"/>
        <path fill="#FFF" d="M10.425 22.636h3.239l1.335-1.316h-4.574z"/>
        <path fill="#75949E" d="M10.425 22.636h3.239l1.335-1.316h-4.574z" opacity=".5"/>
        <path fill="#A8003A" d="M9.031 11.445h1.413v1H9.031z"/>
        <path fill="#75949E" d="M9.031 11.445h1.413v1H9.031z" opacity=".5"/>
        <path fill="#A8003A" d="M24.874 11.445h-.236.216z"/>
        <path fill="#75949E" d="M24.874 11.445h-.236.216z" opacity=".5"/>
        <path fill="#E0004D" d="M9.031 11.445h1.413v1.845H9.031z"/>
        <path fill="#75949E" d="M9.031 11.445h1.413v1.845H9.031z" opacity=".5"/>
        <path fill="#E0004D" d="M24.854 11.445h-.216v.216z"/>
        <path fill="#75949E" d="M24.854 11.445h-.216v.216z" opacity=".5"/>
        <path fill="#E0004D" d="M9.031 18.552h1.413v2.768H9.031z"/>
        <path fill="#75949E" d="M9.031 18.552h1.413v2.768H9.031z" opacity=".5"/>
        <path fill="#E0004D" d="M9.03 26.562v.726l.707-.726z"/>
        <path fill="#75949E" d="M9.03 26.562v.726l.707-.726z" opacity=".5"/>
        <path fill="#FFF" d="M9.031 14.606h1.413v3.926H9.031z"/>
        <path fill="#75949E" d="M9.031 14.606h1.413v3.926H9.031z" opacity=".5"/>
        <path fill="#FFF" d="M10.425 25.875v-3.24H9.03v3.927h.706z"/>
        <path fill="#75949E" d="M10.425 25.875v-3.24H9.03v3.927h.706z" opacity=".5"/>
        <path fill="#FFF" d="M9.031 13.291h1.413v1.315H9.031z"/>
        <path fill="#75949E" d="M9.031 13.291h1.413v1.315H9.031z" opacity=".5"/>
        <path fill="#75949E" d="M9.031 13.291h1.413v1.315H9.031z" opacity=".5"/>
        <path fill="#FFF" d="M9.031 21.32h1.413v1.315H9.031z"/>
        <path fill="#75949E" d="M9.031 21.32h1.413v1.315H9.031z" opacity=".5"/>
        <path fill="#75949E" d="M9.031 21.32h1.413v1.315H9.031z" opacity=".5"/>
        <path fill="#E0004D" d="M17.924 13.29h5.085l1.629-1.629v-.216H22.93v1.218H12.093v-1.218h-1.668v1.846h6.733v5.261h-6.733v2.768h4.574l2.925-2.925v-3.789zM27.799 1.669V.059H7.283v1.61H27.151z"/>
        <path fill="#A8003A" d="M24.874 11.445h1.178v-1.119l-.236.157z"/>
        <path fill="#75949E" d="M24.874 11.445h1.178v-1.119l-.236.157z" opacity=".26"/>
        <path fill="#E0004D" d="M24.01 58.66l.648.059v-.059h-.648z"/>
        <path fill="#75949E" d="M24.01 58.66l.648.059v-.059h-.648z" opacity=".26"/>
        <path fill="#E0004D" d="M24.638 13.29v-1.629l-1.63 1.63z"/>
        <path fill="#75949E" d="M24.638 13.29v-1.629l-1.63 1.63z" opacity=".26"/>
        <path fill="#FFF" d="M21.693 14.606l-3.77 3.79v.156h6.715v-3.946z"/>
        <path fill="#75949E" d="M21.693 14.606l-3.77 3.79v.156h6.715v-3.946z" opacity=".26"/>
        <path fill="#FFF" d="M10.425 25.875v.687h6.733v-3.926h-3.494z"/>
        <path fill="#75949E" d="M10.425 25.875v.687h6.733v-3.926h-3.494z" opacity=".26"/>
        <path fill="#FFF" d="M17.924 22.636h6.714v3.926h-6.714z"/>
        <path fill="#75949E" d="M17.924 22.636h6.714v3.926h-6.714z" opacity=".26"/>
        <path fill="#FFF" d="M17.924 30.665h6.714v3.926h-6.714z"/>
        <path fill="#75949E" d="M17.924 30.665h6.714v3.926h-6.714z" opacity=".26"/>
        <path fill="#FFF" d="M10.425 30.665h6.714v3.926h-6.714z"/>
        <path fill="#75949E" d="M10.425 30.665h6.714v3.926h-6.714z" opacity=".26"/>
        <path fill="#FFF" d="M17.924 38.694h6.714v3.926h-6.714z"/>
        <path fill="#75949E" d="M17.924 38.694h6.714v3.926h-6.714z" opacity=".26"/>
        <path fill="#FFF" d="M10.425 38.694h6.714v3.926h-6.714z"/>
        <path fill="#75949E" d="M10.425 38.694h6.714v3.926h-6.714z" opacity=".26"/>
        <path fill="#FFF" d="M10.425 46.704h6.714v3.926h-6.714z"/>
        <path fill="#75949E" d="M10.425 46.704h6.714v3.926h-6.714z" opacity=".26"/>
        <path fill="#FFF" d="M17.924 46.704h6.714v3.926h-6.714z"/>
        <path fill="#75949E" d="M17.924 46.704h6.714v3.926h-6.714z" opacity=".26"/>
        <path fill="#FFF" d="M12.545 54.734a27.877 27.877 0 0 0 4.594 2.297v-2.297h-4.594z"/>
        <path fill="#75949E" d="M12.545 54.734a27.877 27.877 0 0 0 4.594 2.297v-2.297h-4.594z" opacity=".26"/>
        <path fill="#FFF" d="M24.638 54.734h-6.714v2.591a27.333 27.333 0 0 0 6.066 1.355h.648v-3.946z"/>
        <path fill="#75949E" d="M24.638 54.734h-6.714v2.591a27.333 27.333 0 0 0 6.066 1.355h.648v-3.946z" opacity=".26"/>
        <path fill="#FFF" d="M21.693 14.606h2.945v-1.315h-1.63z"/>
        <path fill="#75949E" d="M21.693 14.606h2.945v-1.315h-1.63z" opacity=".5"/>
        <path fill="#75949E" d="M21.693 14.606h2.945v-1.315h-1.63z" opacity=".26"/>
        <path fill="#FFF" d="M10.425 29.35h6.714v1.315h-6.714z"/>
        <path fill="#75949E" d="M10.425 29.35h6.714v1.315h-6.714z" opacity=".5"/>
        <path fill="#75949E" d="M10.425 29.35h6.714v1.315h-6.714z" opacity=".26"/>
        <path fill="#FFF" d="M17.924 29.35h6.714v1.315h-6.714z"/>
        <path fill="#75949E" d="M17.924 29.35h6.714v1.315h-6.714z" opacity=".5"/>
        <path fill="#75949E" d="M17.924 29.35h6.714v1.315h-6.714z" opacity=".26"/>
        <path fill="#FFF" d="M17.158 22.636V21.32h-2.16l-1.334 1.316z"/>
        <path fill="#75949E" d="M17.158 22.636V21.32h-2.16l-1.334 1.316z" opacity=".5"/>
        <path fill="#75949E" d="M17.158 22.636V21.32h-2.16l-1.334 1.316z" opacity=".26"/>
        <path fill="#FFF" d="M17.924 21.32h6.714v1.315h-6.714z"/>
        <path fill="#75949E" d="M17.924 21.32h6.714v1.315h-6.714z" opacity=".5"/>
        <path fill="#75949E" d="M17.924 21.32h6.714v1.315h-6.714z" opacity=".26"/>
        <path fill="#FFF" d="M17.924 37.379h6.714v1.315h-6.714z"/>
        <path fill="#75949E" d="M17.924 37.379h6.714v1.315h-6.714z" opacity=".5"/>
        <path fill="#75949E" d="M17.924 37.379h6.714v1.315h-6.714z" opacity=".26"/>
        <path fill="#FFF" d="M10.425 37.379h6.714v1.315h-6.714z"/>
        <path fill="#75949E" d="M10.425 37.379h6.714v1.315h-6.714z" opacity=".5"/>
        <path fill="#75949E" d="M10.425 37.379h6.714v1.315h-6.714z" opacity=".26"/>
        <path fill="#FFF" d="M10.425 45.389h6.714v1.315h-6.714z"/>
        <path fill="#75949E" d="M10.425 45.389h6.714v1.315h-6.714z" opacity=".5"/>
        <path fill="#75949E" d="M10.425 45.389h6.714v1.315h-6.714z" opacity=".26"/>
        <path fill="#FFF" d="M17.924 45.389h6.714v1.315h-6.714z"/>
        <path fill="#75949E" d="M17.924 45.389h6.714v1.315h-6.714z" opacity=".5"/>
        <path fill="#75949E" d="M17.924 45.389h6.714v1.315h-6.714z" opacity=".26"/>
        <path fill="#FFF" d="M17.158 53.418H10.64c.02.02.06.04.079.06.04.019.059.039.098.078.236.177.471.334.707.51.059.04.118.079.157.118.236.157.49.334.746.49.04.02.079.06.137.08h4.594v-1.336z"/>
        <path fill="#75949E" d="M17.158 53.418H10.64c.02.02.06.04.079.06.04.019.059.039.098.078.236.177.471.334.707.51.059.04.118.079.157.118.236.157.49.334.746.49.04.02.079.06.137.08h4.594v-1.336z" opacity=".5"/>
        <path fill="#75949E" d="M17.158 53.418H10.64c.02.02.06.04.079.06.04.019.059.039.098.078.236.177.471.334.707.51.059.04.118.079.157.118.236.157.49.334.746.49.04.02.079.06.137.08h4.594v-1.336z" opacity=".26"/>
        <path fill="#FFF" d="M17.924 53.418h6.714v1.315h-6.714z"/>
        <path fill="#75949E" d="M17.924 53.418h6.714v1.315h-6.714z" opacity=".5"/>
        <path fill="#75949E" d="M17.924 53.418h6.714v1.315h-6.714z" opacity=".26"/>
        <path fill="#A8003A" d="M24.854 11.445h1.198-1.178z"/>
        <path fill="#75949E" d="M24.854 11.445h1.198-1.178z" opacity=".5"/>
        <path fill="#75949E" d="M24.854 11.445h1.198-1.178z" opacity=".26"/>
        <path fill="#E0004D" d="M9.031 34.591h1.413v2.768H9.031z"/>
        <path fill="#75949E" d="M9.031 34.591h1.413v2.768H9.031z" opacity=".5"/>
        <path fill="#75949E" d="M9.031 34.591h1.413v2.768H9.031z" opacity=".26"/>
        <path fill="#E0004D" d="M9.031 42.621h1.413v2.768H9.031z"/>
        <path fill="#75949E" d="M9.031 42.621h1.413v2.768H9.031z" opacity=".5"/>
        <path fill="#75949E" d="M9.031 42.621h1.413v2.768H9.031z" opacity=".26"/>
        <path fill="#E0004D" d="M24.638 26.562h1.413v2.768h-1.413z"/>
        <path fill="#75949E" d="M24.638 26.562h1.413v2.768h-1.413z" opacity=".5"/>
        <path fill="#75949E" d="M24.638 26.562h1.413v2.768h-1.413z" opacity=".26"/>
        <path fill="#E0004D" d="M24.638 18.552h1.413v2.768h-1.413z"/>
        <path fill="#75949E" d="M24.638 18.552h1.413v2.768h-1.413z" opacity=".5"/>
        <path fill="#75949E" d="M24.638 18.552h1.413v2.768h-1.413z" opacity=".26"/>
        <path fill="#E0004D" d="M9.03 27.288v2.062h1.395v-2.788h-.688z"/>
        <path fill="#75949E" d="M9.03 27.288v2.062h1.395v-2.788h-.688z" opacity=".5"/>
        <path fill="#75949E" d="M9.03 27.288v2.062h1.395v-2.788h-.688z" opacity=".26"/>
        <path fill="#E0004D" d="M24.638 42.621h1.413v2.768h-1.413z"/>
        <path fill="#75949E" d="M24.638 42.621h1.413v2.768h-1.413z" opacity=".5"/>
        <path fill="#75949E" d="M24.638 42.621h1.413v2.768h-1.413z" opacity=".26"/>
        <path fill="#E0004D" d="M24.638 58.66v.059c.471.04.942.059 1.414.079v-.118h-1.414v-.02z"/>
        <path fill="#75949E" d="M24.638 58.66v.059c.471.04.942.059 1.414.079v-.118h-1.414v-.02z" opacity=".5"/>
        <path fill="#75949E" d="M24.638 58.66v.059c.471.04.942.059 1.414.079v-.118h-1.414v-.02z" opacity=".26"/>
        <path fill="#E0004D" d="M24.638 34.591h1.413v2.768h-1.413z"/>
        <path fill="#75949E" d="M24.638 34.591h1.413v2.768h-1.413z" opacity=".5"/>
        <path fill="#75949E" d="M24.638 34.591h1.413v2.768h-1.413z" opacity=".26"/>
        <path fill="#E0004D" d="M24.638 50.65h1.413v2.768h-1.413z"/>
        <path fill="#75949E" d="M24.638 50.65h1.413v2.768h-1.413z" opacity=".5"/>
        <path fill="#75949E" d="M24.638 50.65h1.413v2.768h-1.413z" opacity=".26"/>
        <path fill="#E0004D" d="M24.638 11.661v1.63h1.414v-1.846h-1.198z"/>
        <path fill="#75949E" d="M24.638 11.661v1.63h1.414v-1.846h-1.198z" opacity=".5"/>
        <path fill="#75949E" d="M24.638 11.661v1.63h1.414v-1.846h-1.198z" opacity=".26"/>
        <path fill="#E0004D" d="M10.425 50.65H9.03v1.453c.059.04.098.098.157.137l.118.118c.215.177.431.373.647.55.04.04.099.079.138.118.118.078.216.176.334.255v-2.63z"/>
        <path fill="#75949E" d="M10.425 50.65H9.03v1.453c.059.04.098.098.157.137l.118.118c.215.177.431.373.647.55.04.04.099.079.138.118.118.078.216.176.334.255v-2.63z" opacity=".5"/>
        <path fill="#75949E" d="M10.425 50.65H9.03v1.453c.059.04.098.098.157.137l.118.118c.215.177.431.373.647.55.04.04.099.079.138.118.118.078.216.176.334.255v-2.63z" opacity=".26"/>
        <path fill="#FFF" d="M24.638 14.606h1.413v3.926h-1.413z"/>
        <path fill="#75949E" d="M24.638 14.606h1.413v3.926h-1.413z" opacity=".5"/>
        <path fill="#75949E" d="M24.638 14.606h1.413v3.926h-1.413z" opacity=".26"/>
        <path fill="#FFF" d="M9.737 26.562h.688v-.687z"/>
        <path fill="#75949E" d="M9.737 26.562h.688v-.687z" opacity=".5"/>
        <path fill="#75949E" d="M9.737 26.562h.688v-.687z" opacity=".26"/>
        <path fill="#FFF" d="M24.638 22.636h1.413v3.926h-1.413z"/>
        <path fill="#75949E" d="M24.638 22.636h1.413v3.926h-1.413z" opacity=".5"/>
        <path fill="#75949E" d="M24.638 22.636h1.413v3.926h-1.413z" opacity=".26"/>
        <path fill="#FFF" d="M9.031 30.665h1.413v3.926H9.031z"/>
        <path fill="#75949E" d="M9.031 30.665h1.413v3.926H9.031z" opacity=".5"/>
        <path fill="#75949E" d="M9.031 30.665h1.413v3.926H9.031z" opacity=".26"/>
        <path fill="#FFF" d="M24.638 30.665h1.413v3.926h-1.413z"/>
        <path fill="#75949E" d="M24.638 30.665h1.413v3.926h-1.413z" opacity=".5"/>
        <path fill="#75949E" d="M24.638 30.665h1.413v3.926h-1.413z" opacity=".26"/>
        <path fill="#FFF" d="M24.638 38.694h1.413v3.926h-1.413z"/>
        <path fill="#75949E" d="M24.638 38.694h1.413v3.926h-1.413z" opacity=".5"/>
        <path fill="#75949E" d="M24.638 38.694h1.413v3.926h-1.413z" opacity=".26"/>
        <path fill="#FFF" d="M9.031 38.694h1.413v3.926H9.031z"/>
        <path fill="#75949E" d="M9.031 38.694h1.413v3.926H9.031z" opacity=".5"/>
        <path fill="#75949E" d="M9.031 38.694h1.413v3.926H9.031z" opacity=".26"/>
        <path fill="#FFF" d="M24.638 46.704h1.413v3.926h-1.413z"/>
        <path fill="#75949E" d="M24.638 46.704h1.413v3.926h-1.413z" opacity=".5"/>
        <path fill="#75949E" d="M24.638 46.704h1.413v3.926h-1.413z" opacity=".26"/>
        <path fill="#FFF" d="M9.031 46.704h1.413v3.926H9.031z"/>
        <path fill="#75949E" d="M9.031 46.704h1.413v3.926H9.031z" opacity=".5"/>
        <path fill="#75949E" d="M9.031 46.704h1.413v3.926H9.031z" opacity=".26"/>
        <path fill="#FFF" d="M24.638 54.734h1.413v3.926h-1.413z"/>
        <path fill="#75949E" d="M24.638 54.734h1.413v3.926h-1.413z" opacity=".5"/>
        <path fill="#75949E" d="M24.638 54.734h1.413v3.926h-1.413z" opacity=".26"/>
        <path fill="#FFF" d="M24.638 13.291h1.413v1.315h-1.413z"/>
        <path fill="#75949E" d="M24.638 13.291h1.413v1.315h-1.413z" opacity=".5"/>
        <path fill="#75949E" d="M24.638 13.291h1.413v1.315h-1.413z" opacity=".5"/>
        <path fill="#75949E" d="M24.638 13.291h1.413v1.315h-1.413z" opacity=".26"/>
        <path fill="#FFF" d="M24.638 29.35h1.413v1.315h-1.413z"/>
        <path fill="#75949E" d="M24.638 29.35h1.413v1.315h-1.413z" opacity=".5"/>
        <path fill="#75949E" d="M24.638 29.35h1.413v1.315h-1.413z" opacity=".5"/>
        <path fill="#75949E" d="M24.638 29.35h1.413v1.315h-1.413z" opacity=".26"/>
        <path fill="#FFF" d="M9.031 29.35h1.413v1.315H9.031z"/>
        <path fill="#75949E" d="M9.031 29.35h1.413v1.315H9.031z" opacity=".5"/>
        <path fill="#75949E" d="M9.031 29.35h1.413v1.315H9.031z" opacity=".5"/>
        <path fill="#75949E" d="M9.031 29.35h1.413v1.315H9.031z" opacity=".26"/>
        <path fill="#FFF" d="M24.638 21.32h1.413v1.315h-1.413z"/>
        <path fill="#75949E" d="M24.638 21.32h1.413v1.315h-1.413z" opacity=".5"/>
        <path fill="#75949E" d="M24.638 21.32h1.413v1.315h-1.413z" opacity=".5"/>
        <path fill="#75949E" d="M24.638 21.32h1.413v1.315h-1.413z" opacity=".26"/>
        <path fill="#FFF" d="M9.031 37.379h1.413v1.315H9.031z"/>
        <path fill="#75949E" d="M9.031 37.379h1.413v1.315H9.031z" opacity=".5"/>
        <path fill="#75949E" d="M9.031 37.379h1.413v1.315H9.031z" opacity=".5"/>
        <path fill="#75949E" d="M9.031 37.379h1.413v1.315H9.031z" opacity=".26"/>
        <path fill="#FFF" d="M24.638 37.379h1.413v1.315h-1.413z"/>
        <path fill="#75949E" d="M24.638 37.379h1.413v1.315h-1.413z" opacity=".5"/>
        <path fill="#75949E" d="M24.638 37.379h1.413v1.315h-1.413z" opacity=".5"/>
        <path fill="#75949E" d="M24.638 37.379h1.413v1.315h-1.413z" opacity=".26"/>
        <path fill="#FFF" d="M24.638 45.389h1.413v1.315h-1.413z"/>
        <path fill="#75949E" d="M24.638 45.389h1.413v1.315h-1.413z" opacity=".5"/>
        <path fill="#75949E" d="M24.638 45.389h1.413v1.315h-1.413z" opacity=".5"/>
        <path fill="#75949E" d="M24.638 45.389h1.413v1.315h-1.413z" opacity=".26"/>
        <path fill="#FFF" d="M9.031 45.389h1.413v1.315H9.031z"/>
        <path fill="#75949E" d="M9.031 45.389h1.413v1.315H9.031z" opacity=".5"/>
        <path fill="#75949E" d="M9.031 45.389h1.413v1.315H9.031z" opacity=".5"/>
        <path fill="#75949E" d="M9.031 45.389h1.413v1.315H9.031z" opacity=".26"/>
        <path fill="#FFF" d="M24.638 53.418h1.413v1.315h-1.413z"/>
        <path fill="#75949E" d="M24.638 53.418h1.413v1.315h-1.413z" opacity=".5"/>
        <path fill="#75949E" d="M24.638 53.418h1.413v1.315h-1.413z" opacity=".5"/>
        <path fill="#75949E" d="M24.638 53.418h1.413v1.315h-1.413z" opacity=".26"/>
        <path fill="#E0004D" d="M17.924 53.418h6.714V50.65h-6.714V45.41h6.714V42.64h-6.714V37.4h6.714V34.63h-6.714v-5.242h6.714v-2.768h-6.714v-5.242h6.714v-2.768h-6.714v-.157l-2.925 2.925h2.16v5.242h-6.715v2.768h6.714v5.242h-6.714v2.768h6.714v5.241h-6.714v2.769h6.714v5.241h-6.714v2.611c.079.06.138.118.216.157h6.518V57.031l.766.294v-3.907h-.02z"/>
        <path fill="#75949E" d="M17.924 53.418h6.714V50.65h-6.714V45.41h6.714V42.64h-6.714V37.4h6.714V34.63h-6.714v-5.242h6.714v-2.768h-6.714v-5.242h6.714v-2.768h-6.714v-.157l-2.925 2.925h2.16v5.242h-6.715v2.768h6.714v5.242h-6.714v2.768h6.714v5.241h-6.714v2.769h6.714v5.241h-6.714v2.611c.079.06.138.118.216.157h6.518V57.031l.766.294v-3.907h-.02z" opacity=".26"/>
        <path fill="#E0004D" d="M30.174 49.394V10.326h-4.122V58.74c1.374.039 2.748-.04 4.122-.216v-9.129zM9.03 50.65V10.307H4.909V47.47c.137.177.255.373.393.55.039.059.078.098.117.157.157.216.315.412.472.628.02.02.039.04.039.059l.53.648c.04.059.078.098.137.157.177.216.373.432.57.628.02.02.02.04.039.04.177.196.373.392.55.588l.137.138c.196.196.393.392.609.589.039.039.078.058.098.098.137.117.275.255.412.373V50.65h.02z"/>
        <path fill="#FFF" d="M22.93 12.663V2.67H12.113v9.993H22.93zm-7.283-7.52c.176-.02.353-.039.51-.039.177 0 .334.02.51.04v1.963h1.689V5.144c.177-.02.353-.04.51-.04.157 0 .334.02.51.04v5.025c-.176.02-.353.04-.51.04-.157 0-.333-.02-.51-.04V7.99h-1.689v2.18c-.176.019-.353.039-.51.039-.157 0-.334-.02-.51-.04V5.144z"/>
        <path fill="#E0004D" d="M16.157 10.209c.177 0 .353-.02.51-.04V7.99h1.689v2.18c.177.019.353.039.51.039.177 0 .354-.02.51-.04V5.144c-.176-.02-.333-.04-.51-.04-.176 0-.333.02-.51.04v1.963h-1.689V5.144c-.176-.02-.333-.04-.51-.04s-.334.02-.51.04v5.025c.176.02.333.04.51.04z"/>
        <path fill="#FFF" d="M36.396 16.44c-.55.766-1.04 1.571-1.472 2.415a17.742 17.742 0 0 0-1.63 4.83c-.078.451-.157.903-.196 1.374A19.515 19.515 0 0 0 33 26.944c0 .412.02.804.04 1.197.019.314.058.628.078.942.059.472.137.923.216 1.375.216 1.06.51 2.1.903 3.082.118.314.255.628.412.942.216.471.452.923.707 1.374.628 1.1 1.394 2.14 2.238 3.083.294.333.608.648.923.942.216.196.412.393.647.589.315.275.648.53.982.785a17.887 17.887 0 0 0 10.778 3.612c3.396 0 6.557-.942 9.266-2.59a18.22 18.22 0 0 0 4.594-3.986 17.79 17.79 0 0 0 4.064-11.367C68.848 17.029 60.798 9 50.924 9a17.88 17.88 0 0 0-8.481 2.14 18.484 18.484 0 0 0-6.047 5.3zm14.528-6.027c9.11 0 16.53 7.421 16.53 16.53 0 9.11-7.42 16.53-16.53 16.53-9.11 0-16.53-7.42-16.53-16.53 0-9.109 7.42-16.53 16.53-16.53z"/>
        <path fill="#FFF" d="M64 27c0-7.167-5.833-13-13-13s-13 5.833-13 13 5.833 13 13 13 13-5.833 13-13zm-20.267-6.11a1.863 1.863 0 0 1 2.61-.254l3.632 2.964a3.41 3.41 0 0 1 .766-.098c.138 0 .275.02.412.02l5.222-5.596a1.9 1.9 0 0 1 1.296-.589c.491-.02.962.157 1.335.491a1.9 1.9 0 0 1 .59 1.296c.019.49-.158.962-.492 1.335l-5.222 5.595c.04.177.06.373.06.57.019 1.747-1.395 3.16-3.122 3.18-1.748.02-3.161-1.394-3.18-3.122v-.216l-3.633-2.964a1.846 1.846 0 0 1-.274-2.611z"/>
        <path fill="#002D74" d="M35 27c0 8.817 7.183 16 16 16s16-7.183 16-16-7.183-16-16-16-16 7.183-16 16zm16 13c-7.167 0-13-5.833-13-13s5.833-13 13-13 13 5.833 13 13-5.833 13-13 13z"/>
        <path fill="#002D74" d="M43.692 27.166l3.632 2.964v.216a3.154 3.154 0 0 0 3.18 3.122 3.154 3.154 0 0 0 3.063-3.75l5.222-5.595a1.82 1.82 0 0 0 .49-1.335 1.819 1.819 0 0 0-.588-1.296 1.82 1.82 0 0 0-1.335-.49c-.49.02-.962.215-1.296.588l-5.222 5.596c-.137-.02-.275-.02-.412-.02-.275 0-.53.04-.766.098L46.028 24.3a1.863 1.863 0 0 0-2.61.255 1.846 1.846 0 0 0 .274 2.61z"/>
    </g>
</svg>
