<svg xmlns="http://www.w3.org/2000/svg" width="66" height="64" viewBox="0 0 66 64">
    <g fill="none" fill-rule="nonzero">
        <path fill="#F1F1F1" d="M15.793 53.459V26.936c-3.445-1.844-3.275-5.364-1.638-6.475.603-.414 1.149-.772 1.638-1.148v-8.019a2.93 2.93 0 0 1 2.165-2.823 4.21 4.21 0 0 1 3.783-2.353h5.873c.414-.829.659-1.638.659-1.638.132.019.263.038.376.038C18.43 3.332 7.962 8.414 2.9 18.353c-5.93 11.633-1.92 26.146 9.11 33.13a25.49 25.49 0 0 0 5.516 2.635c-.584-.207-1.167-.414-1.732-.66zM47.944 20.216v39.116c6.456 1.13 13.251-2.09 16.207-8.584 2.767-6.06 1.091-13.383-4.029-17.637a14.65 14.65 0 0 0-3.068-1.977c-3.37-1.638-5.798-4.762-6.833-8.358-.113-.395-.245-.809-.376-1.204-.226-.113-.452-.226-.66-.358a7.392 7.392 0 0 1-1.241-.998z"/>
        <path fill="#4C4C4C" d="M17.525 17.525v-7.19c0-.66.15-1.28.433-1.846a2.93 2.93 0 0 0-2.165 2.824v8.019c.659-.508 1.223-1.036 1.732-1.807zM15.793 53.459c.565.245 1.148.452 1.732.659V27.614a9.227 9.227 0 0 1-1.732-.678V53.46zM28.442 5.082c.057-.188.132-.376.189-.564a2.83 2.83 0 0 0-.377-.038s-.245.81-.659 1.638h.414c.17-.302.32-.64.433-1.036z" opacity=".35"/>
        <path fill="#CED1D2" d="M43.727 63.322H21.722a4.068 4.068 0 0 1-2.014-.527H5.026a.566.566 0 0 0-.565.565c0 .301.264.565.565.565h57.92c.32 0 .565-.264.565-.565a.579.579 0 0 0-.565-.565H45.74a4.015 4.015 0 0 1-2.014.527z"/>
        <path fill="#E0004D" d="M43.765 9.224h1.468c.715 0 1.299.583 1.299 1.298v1.224a7.684 7.684 0 0 1 1.016-1.525c.113-.132.226-.263.358-.376-.245-2.07-2.033-3.69-4.179-3.69h-.922c.3 1.017.527 2.07.715 3.087h.245v-.018zM47.925 59.332V20.216c-.132-.131-.264-.263-.396-.414-.131-.17-.263-.32-.395-.508l-.621.057v20.988c.113.056.17.132.17.207a.584.584 0 0 1-.17.339v12.48c0 .715-.584 1.299-1.299 1.299H20.198a1.301 1.301 0 0 1-1.3-1.3V27.916a9.795 9.795 0 0 1-1.41-.3v31.491c0 1.581.884 2.974 2.183 3.69.602.338 1.28.526 2.014.526h22.004c.735 0 1.412-.188 2.015-.527a4.161 4.161 0 0 0 2.22-3.463zm-12.593-.508a2.603 2.603 0 0 1-2.598 2.597 2.603 2.603 0 0 1-2.598-2.597 2.603 2.603 0 0 1 2.598-2.598 2.603 2.603 0 0 1 2.598 2.598zM17.525 17.525c.508-.772.979-1.807 1.411-3.276V10.522c0-.715.584-1.298 1.3-1.298H22.08c2.052-.885 4.65-.772 5.93-3.088h-6.288c-1.656 0-3.087.96-3.783 2.353a4.093 4.093 0 0 0-.433 1.845v7.19h.019z"/>
        <path fill="#F1F1F1" d="M45.722 41.205s.377.075.34.376c-.038.301-.678.414-.678.49.583.188.263.734-.415.696v.057c.207.188.17.338 0 .47v11.37h.283c.715 0 1.299-.584 1.299-1.3V40.886c-.302.3-.829.32-.829.32zM43.784 19.652l2.258-2.39.057-.057c-.019-.057-.038-.132-.057-.189a7.003 7.003 0 0 1-.282-1.995c0-.696.094-1.374.282-1.995.132-.433.283-.866.49-1.261V10.54c0-.715-.584-1.299-1.3-1.299H43.54c.301 1.732.433 3.389.433 4.65 0 1.675-.621 3.614-2.033 5.515.056.057.094.113.15.17.038.056.095.112.132.169.057.056.094.132.15.188.038.057.095.113.133.17.037.075.094.131.131.207.038.056.076.131.132.188.038.075.094.15.132.207.037.075.075.132.113.207l.113.226.113.226.113.226c.037.075.075.15.094.225.037.076.075.17.094.245.037.075.056.17.094.245.038.075.056.17.094.245.038.094.057.169.094.263.019.075.057.17.075.245.038.094.057.188.095.301.018.075.056.17.075.245.056.17.094.357.132.527.018.075.037.15.056.244.019.113.057.226.075.358.02.094.038.17.057.264.019.113.038.226.056.32l.057.282.056.339c.02.094.038.188.038.301l.056.339c.02.094.02.207.038.301.019.113.019.226.038.339.019.094.019.207.037.301.02.113.02.245.038.358.019.094.019.207.019.3.019.114.019.246.037.377 0 .094.02.207.02.301 0 .132.018.245.018.377 0 .094.019.207.019.301 0 .132.019.264.019.395 0 .095 0 .207.019.302 0 .15.018.282.018.433v9.468c.64.019 1.28.075 1.563.226V19.369l-.49.057-2.258.226zM20.216 9.224c-.715 0-1.298.583-1.298 1.298v3.727c.15-.508.3-1.091.451-1.713.452-1.92 1.487-2.785 2.692-3.312h-1.845z"/>
        <circle cx="32.731" cy="58.823" r="2.598" fill="#F1F1F1" transform="rotate(-67.5 32.731 58.823)"/>
        <path fill="#041939" d="M28.442 5.082a4.756 4.756 0 0 1-.433 1.036c-1.28 2.315-3.877 2.22-5.929 3.087-1.224.527-2.259 1.393-2.692 3.313-.15.64-.3 1.204-.452 1.713-.432 1.487-.884 2.503-1.411 3.275-.509.753-1.073 1.28-1.732 1.788-.49.377-1.035.715-1.638 1.148-1.637 1.13-1.807 4.65 1.638 6.476.49.263 1.073.49 1.732.677.433.113.903.226 1.411.301.998.151 2.146.208 3.445.132 1.901-7.172 6.57-9.374 9.694-10.033.377-.339.79-.62 1.28-.828v-3.426a5.275 5.275 0 0 1-1.75-2.786c-.527-.131-1.6-.583-1.6-2.014 0-1.261.847-1.393 1.411-1.336v-.057c2.353-.376 5.968-1.506 8.095-4.837 1.637 1.374 1.637 3.99 1.637 6.531 0 2.41-.753 4.142-2.033 5.026v2.9c.433.244.79.564 1.092.94.057.02.094.057.15.076.076.037.151.075.208.112.056.038.113.076.17.095.169.094.32.207.47.32a.26.26 0 0 0 .075.056c.056.057.132.113.188.15.057.038.094.076.15.132l.17.17.15.15.02.02c1.411-1.92 2.033-3.86 2.033-5.516 0-1.261-.132-2.918-.433-4.65a26.099 26.099 0 0 0-.716-3.087 50.221 50.221 0 0 0-.282-.884C40.828.169 34.372-1.656 30.438 1.995a6.927 6.927 0 0 0-1.77 2.541c-.094.17-.17.358-.226.546z"/>
        <path fill="#041939" d="M33.13 17.845c.075 0 .15-.02.225-.02v-.093l-.226.113z"/>
        <path fill="#FFF" d="M26.278 33.864l3.143.602-.17.565v.018c-.752 2.391-1.298 3.953-1.298 3.953l5.816.603V19.576c-.056-.094-.113-.169-.15-.263 0-.019-.019-.038-.019-.057-.019-.056-.056-.112-.075-.169-.02-.038-.038-.075-.038-.113a2.37 2.37 0 0 1-.056-.188c-.02-.038-.02-.075-.038-.113-.019-.075-.019-.132-.038-.207 0-.038-.019-.075-.019-.094-.018-.094-.018-.207-.018-.32v-.226c-.076 0-.15.019-.226.019-.377.226-.716.49-.998.79-1.167 1.243-1.261 2.88-1.261 3.389 1.035.508.508 2.992.433 3.275-.377 2.127-.885 3.67-1.525 4.63.15.358.339.584.47.697.208.17.396.226.547.226a.42.42 0 0 1 .32-.17c.226 0 .414.189.414.414a.418.418 0 0 1-.414.415.42.42 0 0 1-.32-.17 1.362 1.362 0 0 1-.829-.339 1.816 1.816 0 0 1-.508-.658c-.245.263-.49.451-.753.564-.339.15-.64.15-.847.094a.461.461 0 0 1-.226.076.418.418 0 0 1-.414-.414c0-.226.188-.415.414-.415.17 0 .32.113.377.283.132.019.3 0 .508-.094.188-.094.433-.264.715-.622-.376-1.091-.47-2.767-.244-4.988.018-.226.263-2.24 1.035-2.786a.845.845 0 0 1 .339-.131c0-.64.15-2.297 1.393-3.633.094-.094.188-.189.3-.283-3.124.66-7.792 2.861-9.693 10.033-.377 1.43-.64 3.05-.772 4.913 1.656.339 3.181.621 4.725.923z"/>
        <path fill="#00C8AB" d="M44.819 28.536c0 .095.019.208.019.302 0-.094 0-.207-.02-.302zM44.762 27.859c.02.094.02.207.02.301 0-.094 0-.188-.02-.301zM44.612 26.56c.019.094.019.207.037.301 0-.113-.018-.207-.037-.301zM44.706 27.2c.019.094.019.207.038.301a1.648 1.648 0 0 1-.038-.301zM44.95 31.435v0zM44.536 25.92c.02.094.038.188.038.301a1.648 1.648 0 0 1-.038-.301zM44.913 29.93c0 .094 0 .206.019.3-.02-.094-.02-.206-.02-.3zM44.932 30.664v0zM44.875 29.233c0 .094.02.207.02.301-.02-.113-.02-.207-.02-.301zM43.802 22.795c.02.076.057.17.076.245-.02-.075-.057-.15-.076-.245zM44.424 25.318l.056.282-.056-.282zM43.972 23.36c.019.075.056.17.075.245a1.748 1.748 0 0 1-.075-.245zM44.31 24.715c.02.094.038.17.057.264-.019-.094-.038-.17-.056-.264zM44.179 24.132zM43.614 22.287c.038.075.057.17.094.245-.037-.076-.056-.17-.094-.245zM42.07 19.539c-.056-.057-.094-.113-.15-.17l-.019-.018c.057.075.113.131.17.188zM42.202 19.708c.057.057.094.132.15.188-.056-.056-.093-.131-.15-.188zM38.701 43.878c-.997.075-2.842.226-4.913.395v10.41h5.158V43.858c-.17.019-.245.019-.245.019zM42.485 20.085c.037.075.094.131.131.207-.037-.076-.094-.15-.131-.207zM43.426 21.798c.038.075.075.17.094.244-.038-.075-.056-.17-.094-.244zM42.974 20.894l.113.226a.636.636 0 0 0-.113-.226zM43.219 21.327l.113.226c-.057-.075-.076-.15-.113-.226zM42.73 20.461c.037.075.094.15.131.207-.037-.056-.075-.132-.132-.207zM40.715 18.39c.17.095.32.208.47.32-.15-.112-.3-.206-.47-.32zM40.339 18.184c.075.037.15.075.207.112-.075-.037-.132-.075-.207-.112zM38.946 18.974a2.874 2.874 0 0 1-2.73 1.958 2.887 2.887 0 0 1-2.447-1.356v20.048l5.158.545V18.974h.019zM41.581 19.05l.17.169c-.057-.057-.095-.113-.17-.17zM41.261 18.767c.057.057.132.113.188.15-.075-.037-.131-.093-.188-.15z"/>
        <path fill="#FFF" d="M33.788 44.273c-.884.075-1.807.132-2.71.188a171.772 171.772 0 0 0-5.44 3.2v-.056c-.132 2.56-.283 4.988-.396 7.059h8.546V44.273zM25.713 46.099v-.075.075zM30.57 22.419h-.076a.42.42 0 0 0-.188.056c-.452.32-.753 1.676-.847 2.447-.207 2.165-.113 3.52.113 4.405.433-.79.884-2.052 1.242-4.122.207-.847.395-2.636-.245-2.786z"/>
        <path fill="#F1F1F1" d="M25.619 47.661c1.788-1.092 3.595-2.183 5.44-3.2-2.334.15-4.593.283-5.91.283-3.2 0-4.18-2.109-3.163-10.636 0-.037 0-.056.019-.094.019-.075.019-.15.037-.245.038-.244.057-.47.094-.734l4.16.81c-1.543-.301-3.068-.584-4.687-.904.132-1.845.396-3.482.772-4.913-1.299.076-2.447.02-3.445-.132v25.45c0 .715.584 1.299 1.3 1.299h5.006c.113-2.07.264-4.5.396-7.06-.02.057-.02.057-.02.076zm.094-1.637v0z"/>
        <path fill="#FFF" d="M43.784 43.576c-.923.057-3.953.245-4.838.302v10.804h6.023V43.294c-.225.15-.64.245-1.185.282zM44.875 42.767c.038.019.057.057.094.075v-.056c-.037-.019-.075-.019-.094-.019zM41.788 24c.094 1.035.188 2.014.396 2.805.037 0 .094-.02.131-.02.565 0 1.017.453 1.017 1.017 0 .565-.452 1.017-1.017 1.017a1.012 1.012 0 0 1-.583-1.845c-.226-.828-.32-1.863-.414-2.936-.226-2.41-.47-5.045-2.203-6.287v.3c0 .32-.056.622-.15.923v21.177l.508.056v.038c1.073-.433 4.499-1.789 4.95-1.205.528.696-1.11 1.11-1.11 1.11s.828-.037 1.656-.018v-7.737-.734-.226-.49-.281c0-.151 0-.283-.018-.433 0-.095 0-.207-.02-.302 0-.131-.018-.263-.018-.395 0-.094-.019-.207-.019-.301 0-.132-.019-.264-.019-.377 0-.094-.019-.207-.019-.3 0-.132-.018-.245-.037-.377 0-.094-.019-.207-.019-.301-.019-.113-.019-.245-.038-.358-.018-.094-.018-.207-.037-.301-.02-.113-.02-.226-.038-.339-.019-.094-.019-.207-.038-.301l-.056-.339a1.463 1.463 0 0 1-.038-.301L44.5 25.6l-.057-.282c-.018-.113-.037-.226-.056-.32-.019-.094-.038-.17-.057-.264-.018-.113-.056-.226-.075-.358-.019-.075-.038-.169-.056-.244-.038-.188-.094-.358-.132-.527-.019-.076-.057-.17-.075-.245-.038-.094-.057-.207-.095-.301-.018-.094-.056-.17-.075-.245-.037-.094-.056-.17-.094-.263-.038-.095-.056-.17-.094-.245-.038-.075-.057-.17-.094-.245a1.307 1.307 0 0 1-.094-.245 1.151 1.151 0 0 1-.094-.225l-.113-.226-.113-.226-.113-.226c-.038-.075-.076-.132-.113-.207-.038-.075-.094-.15-.132-.207-.038-.057-.075-.132-.132-.188-.037-.076-.094-.132-.131-.207-.038-.057-.095-.113-.132-.17-.057-.056-.094-.132-.15-.188-.038-.057-.095-.113-.133-.17-.056-.056-.113-.112-.15-.188-.038-.056-.094-.094-.15-.15l-.17-.17c-.057-.037-.094-.094-.15-.132-.057-.056-.114-.112-.189-.15a.26.26 0 0 0-.075-.057 6.937 6.937 0 0 0-.47-.32.763.763 0 0 0-.17-.094c-.076-.037-.132-.075-.207-.113-.057-.018-.094-.056-.15-.075 1.185 1.487 1.392 3.84 1.58 5.873z"/>
        <path fill="#002D74" d="M31.774 18.315c-1.223 1.318-1.374 2.993-1.393 3.633a.845.845 0 0 0-.339.132c-.79.546-1.016 2.56-1.035 2.786-.226 2.221-.15 3.896.245 4.988-.283.358-.527.546-.716.621-.207.094-.376.094-.508.094.02.038.02.076.02.132a.458.458 0 0 1-.17.339c.207.038.508.056.847-.094.263-.113.508-.301.753-.565.15.264.32.49.508.659.301.245.602.32.828.339a.378.378 0 0 1-.075-.245c0-.094.037-.17.075-.245a1.048 1.048 0 0 1-.546-.225c-.15-.132-.32-.34-.47-.697.64-.96 1.148-2.503 1.524-4.63.076-.302.584-2.768-.433-3.276 0-.508.095-2.127 1.262-3.388.282-.301.62-.565.997-.79l.226-.114v-.545c-.49.225-.903.489-1.28.828a.86.86 0 0 0-.32.263zm-.941 6.89c-.358 2.051-.81 3.331-1.242 4.122-.226-.866-.32-2.24-.113-4.405.075-.771.376-2.127.847-2.447a.318.318 0 0 1 .188-.056h.075c.621.15.433 1.939.245 2.786zM39.096 17.75c1.751 1.224 1.996 3.878 2.203 6.288.094 1.073.188 2.108.414 2.936a.942.942 0 0 1 .452-.17c-.207-.771-.301-1.769-.396-2.804-.188-2.033-.395-4.386-1.6-5.892a3.762 3.762 0 0 0-1.091-.94v.583h.018z"/>
        <path fill="#1B2C1F" d="M28.028 30.701c0-.037 0-.094-.019-.132a.401.401 0 0 0-.376-.282.418.418 0 0 0-.414.414c0 .226.188.414.414.414.075 0 .17-.019.226-.075a.38.38 0 0 0 .17-.339zM41.299 27.802c0 .565.452 1.017 1.016 1.017.565 0 1.017-.452 1.017-1.017 0-.564-.452-1.016-1.017-1.016-.037 0-.094 0-.131.019a.942.942 0 0 0-.452.17c-.264.187-.433.489-.433.827zm1.016-.527a.526.526 0 1 1 0 1.054.526.526 0 0 1-.527-.527c-.019-.3.226-.527.527-.527z"/>
        <path fill="#E9E8E6" d="M42.315 28.33a.526.526 0 1 0 0-1.055.526.526 0 0 0-.527.527c-.019.302.226.527.527.527z"/>
        <path fill="#1B2C1F" d="M30.795 31.341a.42.42 0 0 0 .32.17.418.418 0 0 0 .414-.415.418.418 0 0 0-.414-.414.37.37 0 0 0-.32.17.378.378 0 0 0-.075.244.47.47 0 0 0 .075.245z"/>
        <path fill="#FFB296" d="M21.986 34.033c.019-.075.019-.15.038-.245-.02.076-.02.15-.038.245zM29.44 34.466l-.17.565a3.78 3.78 0 0 1 .17-.565z"/>
        <path fill="#F28779" d="M29.252 35.03l.17-.564-3.144-.602-4.16-.81c-.038.245-.057.49-.094.734-.02.076-.02.15-.038.245 0 .038 0 .056-.019.094.941.038 1.882.188 2.824.301 1.505.17 2.974.377 4.46.603 0 .018 0 0 0 0z"/>
        <path fill="#FFB296" d="M33.638 19.294a1.2 1.2 0 0 0 .15.264 2.885 2.885 0 0 0 5.176-.602 2.96 2.96 0 0 0 .151-.923v-2.335c-1.506 1.638-3.463 2.824-5.477 3.596zM33.355 18.052c0 .113 0 .207.02.32-.02-.113-.02-.207-.02-.32zM33.412 18.673c-.02-.075-.02-.132-.038-.207.019.075.019.132.038.207zM33.487 18.955c-.019-.056-.038-.113-.056-.188.037.075.037.132.056.188zM33.6 19.238c-.019-.057-.056-.113-.075-.17a.669.669 0 0 1 .075.17z"/>
        <path fill="#F28779" d="M33.355 17.826v.226c0 .113 0 .207.02.32 0 .037.018.075.018.094.019.075.019.132.038.207 0 .038.018.075.037.113.02.056.038.113.057.188.019.038.019.075.037.113.02.057.038.113.076.17 0 .018.018.037.018.056 2.033-.772 3.972-1.977 5.46-3.558v-1.45c-.66.453-1.469.697-2.372.697a5.317 5.317 0 0 1-3.37-1.204V17.826h-.019z"/>
        <path fill="#FFB296" d="M36.725 14.965c.903 0 1.713-.245 2.371-.697 1.28-.884 2.033-2.597 2.033-5.026 0-2.54 0-5.157-1.637-6.531-2.127 3.331-5.76 4.46-8.094 4.837v.057c-.565-.057-1.412.075-1.412 1.336 0 1.43 1.073 1.883 1.6 2.014.32 1.186.941 2.109 1.75 2.786a5.244 5.244 0 0 0 3.389 1.224zM43.294 40.132s1.638-.414 1.11-1.11c-.451-.584-3.877.77-4.95 1.204v-.038l-.508-.056-5.158-.546-5.816-.602s.527-1.563 1.299-3.953a89.955 89.955 0 0 0-4.443-.622c-.94-.113-1.882-.263-2.823-.3-1.017 8.526-.02 10.635 3.162 10.635 1.318 0 3.577-.132 5.91-.283.904-.056 1.827-.132 2.711-.188 2.07-.15 3.916-.301 4.913-.395 0 0 .094 0 .245-.02.885-.056 3.915-.244 4.838-.3.545-.038.978-.132 1.185-.264.17-.132.207-.282 0-.47-.018-.02-.056-.038-.094-.076h.094c.678.038.998-.508.415-.696.018-.076.64-.17.677-.49.038-.32-.339-.376-.339-.376s.527-.019.81-.301c.075-.094.15-.189.17-.34.018-.093-.057-.15-.17-.206-.301-.15-.941-.207-1.563-.226-.847-.019-1.675.019-1.675.019z"/>
        <path fill="#002D74" d="M47.548 10.202c-.395.47-.734.98-1.016 1.525a7.294 7.294 0 0 0-.49 1.261 7.003 7.003 0 0 0-.282 1.996c0 .696.094 1.374.282 1.995.02.056.038.132.057.188l-.057.057-2.258 2.39 2.258-.245.49-.056.62-.057.396.509c.132.15.245.282.396.414.376.376.79.696 1.242.979.207.131.433.244.659.357a7.3 7.3 0 0 0 3.275.772 7.346 7.346 0 0 0 7.285-6.456c.037-.283.056-.584.056-.866a7.339 7.339 0 0 0-7.341-7.341 7.453 7.453 0 0 0-4.198 1.318 7.136 7.136 0 0 0-1.016.846c-.132.17-.245.283-.358.414zm2.108 1.902h6.984c.301 0 .527.244.527.527a.539.539 0 0 1-.527.527h-6.984a.526.526 0 0 1-.527-.527c0-.283.245-.527.527-.527zm0 2.352h6.984c.301 0 .527.245.527.528a.539.539 0 0 1-.527.527h-6.984a.526.526 0 0 1-.527-.527c0-.283.245-.528.527-.528zm0 2.353h4.33c.301 0 .527.245.527.527a.539.539 0 0 1-.527.528h-4.33a.526.526 0 0 1-.527-.528c0-.282.245-.527.527-.527z"/>
        <path fill="#FFF" d="M49.656 13.176h6.984a.526.526 0 0 0 .527-.527.539.539 0 0 0-.527-.527h-6.984a.526.526 0 0 0-.527.527c0 .283.245.527.527.527zM49.656 15.53h6.984a.526.526 0 0 0 .527-.528.539.539 0 0 0-.527-.527h-6.984a.526.526 0 0 0-.527.527c0 .283.245.527.527.527zM49.656 17.882h4.33a.526.526 0 0 0 .527-.527.539.539 0 0 0-.527-.527h-4.33a.526.526 0 0 0-.527.527c0 .283.245.527.527.527z"/>
    </g>
</svg>
